<?xml version="1.0" encoding="UTF-8"?>
<svg xmlns="http://www.w3.org/2000/svg" xmlns:xlink="http://www.w3.org/1999/xlink" width="15px" height="15px" viewBox="0 0 15 15" version="1.1">
<g id="surface1">
<path style="fill:none;stroke-width:2;stroke-linecap:round;stroke-linejoin:round;stroke:rgb(0%,0%,0%);stroke-opacity:1;stroke-miterlimit:4;" d="M 18 13 L 11 6 M 21 21 L 8 21 M 10.9375 20.0625 L 19.60625 11.39375 C 20.79375 10.20625 21.3875 9.6125 21.6125 8.925 C 21.80625 8.325 21.80625 7.675 21.6125 7.075 C 21.3875 6.3875 20.79375 5.79375 19.60625 4.60625 L 19.39375 4.39375 C 18.20625 3.20625 17.6125 2.6125 16.925 2.3875 C 16.325 2.19375 15.675 2.19375 15.075 2.3875 C 14.3875 2.6125 13.79375 3.20625 12.60625 4.39375 L 4.39375 12.60625 C 3.20625 13.79375 2.6125 14.3875 2.3875 15.075 C 2.19375 15.675 2.19375 16.325 2.3875 16.925 C 2.6125 17.6125 3.20625 18.20625 4.39375 19.39375 L 5.0625 20.0625 C 5.40625 20.40625 5.58125 20.58125 5.78125 20.70625 C 5.9625 20.8125 6.15625 20.89375 6.3625 20.94375 C 6.59375 21 6.8375 21 7.325 21 L 8.675 21 C 9.1625 21 9.40625 21 9.6375 20.94375 C 9.84375 20.89375 10.0375 20.8125 10.21875 20.70625 C 10.41875 20.58125 10.59375 20.40625 10.9375 20.0625 Z M 10.9375 20.0625 " transform="matrix(0.625,0,0,0.625,0,0)"/>
</g>
</svg>
