<?xml version="1.0" encoding="UTF-8"?>
<svg xmlns="http://www.w3.org/2000/svg" xmlns:xlink="http://www.w3.org/1999/xlink" width="15px" height="15px" viewBox="0 0 15 15" version="1.1">
<g id="surface1">
<path style=" stroke:none;fill-rule:evenodd;fill:rgb(0%,0%,0%);fill-opacity:1;" d="M 9.925781 2.316406 C 10.65625 1.585938 11.84375 1.585938 12.574219 2.316406 L 12.683594 2.425781 C 13.414062 3.15625 13.414062 4.34375 12.683594 5.074219 L 5.441406 12.316406 C 5.363281 12.398438 5.261719 12.453125 5.152344 12.480469 L 2.652344 13.105469 C 2.4375 13.160156 2.214844 13.097656 2.058594 12.941406 C 1.902344 12.785156 1.839844 12.5625 1.894531 12.347656 L 2.519531 9.847656 C 2.546875 9.738281 2.601562 9.636719 2.683594 9.558594 Z M 11.691406 3.199219 C 11.449219 2.957031 11.050781 2.957031 10.808594 3.199219 L 10.191406 3.816406 L 11.164062 4.828125 L 11.800781 4.191406 C 12.042969 3.949219 12.042969 3.550781 11.800781 3.308594 Z M 10.28125 5.710938 L 9.308594 4.699219 L 3.6875 10.320312 L 3.359375 11.640625 L 4.679688 11.3125 Z M 10.28125 5.710938 "/>
</g>
</svg>
